<svg width="800" height="450" viewBox="0 0 800 450" fill="none" xmlns="http://www.w3.org/2000/svg">
  <!-- Background: Deep Space Dark -->
  <rect width="800" height="450" rx="8" fill="#0A0E14"/>
  
  <!-- Sidebar -->
  <rect width="60" height="450" fill="#111827"/>
  <circle cx="30" cy="40" r="15" fill="#7B1FA2" fill-opacity="0.2" stroke="#7B1FA2"/>
  <rect x="15" y="80" width="30" height="4" rx="2" fill="#374151"/>
  <rect x="15" y="100" width="30" height="4" rx="2" fill="#374151"/>
  <rect x="15" y="120" width="30" height="4" rx="2" fill="#374151"/>

  <!-- Top Header Metrics -->
  <text x="80" y="40" fill="#F3F4F6" font-family="monospace" font-size="18" font-weight="bold">ASF / GLOBAL THREAT INTELLIGENCE</text>
  
  <rect x="80" y="70" width="160" height="60" rx="6" fill="#111827" stroke="#1F2937"/>
  <text x="95" y="90" fill="#9CA3AF" font-family="sans-serif" font-size="10">AVG RISK SCORE</text>
  <text x="95" y="115" fill="#FFB300" font-family="monospace" font-size="20" font-weight="bold">0.12</text>

  <rect x="255" y="70" width="160" height="60" rx="6" fill="#111827" stroke="#1F2937"/>
  <text x="270" y="90" fill="#9CA3AF" font-family="sans-serif" font-size="10">TOTAL BLOCKED</text>
  <text x="270" y="115" fill="#7B1FA2" font-family="monospace" font-size="20" font-weight="bold">4,209</text>

  <!-- Main Chart Area -->
  <rect x="80" y="145" width="480" height="180" rx="6" fill="#111827" stroke="#1F2937"/>
  <text x="95" y="165" fill="#9CA3AF" font-family="sans-serif" font-size="10">BEHAVIORAL DRIFT OVER TIME (ms)</text>
  <!-- Wave Graph -->
  <path d="M95 280 Q 150 200, 200 240 T 300 180 T 400 250 T 540 200" stroke="#7B1FA2" stroke-width="2" fill="none"/>
  <path d="M95 280 Q 150 200, 200 240 T 300 180 T 400 250 T 540 200 V 300 H 95 Z" fill="#7B1FA2" fill-opacity="0.05"/>

  <!-- Identity Modeling List -->
  <rect x="575" y="70" width="210" height="255" rx="6" fill="#111827" stroke="#1F2937"/>
  <text x="590" y="90" fill="#F3F4F6" font-family="sans-serif" font-size="12" font-weight="bold">Active Fingerprints</text>
  <rect x="590" y="105" width="180" height="30" rx="4" fill="#0A0E14"/>
  <circle cx="605" cy="120" r="4" fill="#10B981"/>
  <text x="620" y="123" fill="#9CA3AF" font-family="monospace" font-size="10">ID: Wibu-Node-X1</text>
  
  <rect x="590" y="145" width="180" height="30" rx="4" fill="#0A0E14"/>
  <circle cx="605" cy="160" r="4" fill="#FFB300"/>
  <text x="620" y="163" fill="#9CA3AF" font-family="monospace" font-size="10">ID: Bot-Inference-09</text>

  <!-- Live Telemetry Terminal -->
  <rect x="80" y="340" width="705" height="95" rx="6" fill="#050505" stroke="#1F2937"/>
  <text x="95" y="360" fill="#10B981" font-family="monospace" font-size="10">[SYSTEM] ASF Core Node-01 Online.</text>
  <text x="95" y="380" fill="#9CA3AF" font-family="monospace" font-size="10">[SIGNAL] Behavioral drift detected: entropy_score=0.82</text>
  <text x="95" y="400" fill="#FFB300" font-family="monospace" font-size="10">[ACTION] Rate-limit enforced on Node-X1 (Reason: Concurrency Flood)</text>
</svg>
